<?xml version="1.0" encoding="iso-8859-1"?>
<!-- Uploaded to: SVG Repo, www.svgrepo.com, Generator: SVG Repo Mixer Tools -->
<svg version="1.1" id="Layer_1" xmlns="http://www.w3.org/2000/svg" xmlns:xlink="http://www.w3.org/1999/xlink" 
	 viewBox="0 0 512 512" xml:space="preserve">
<rect x="236.293" y="30.06" style="fill:#EBECEC;" width="33.4" height="132.486"/>
<rect x="253.115" y="30.06" style="fill:#CACDCD;" width="16.574" height="132.486"/>
<circle style="fill:#88DEE0;" cx="252.993" cy="329.98" r="182.019"/>
<g>
	<path style="fill:#C7EAF0;" d="M350.911,329.983h84.1c0-33.182-8.884-64.287-24.395-91.075h-76.56
		C344.091,263.215,350.911,293.243,350.911,329.983z"/>
	<path style="fill:#C7EAF0;" d="M252.994,238.908h81.061c-26.78-64.863-76.478-88.962-80.761-90.939c-0.1,0-0.199-0.003-0.299-0.003
		L252.994,238.908L252.994,238.908z"/>
	<path style="fill:#C7EAF0;" d="M252.994,421.058h81.062c10.036-24.307,16.856-54.334,16.856-91.074c0,0,0,0,0-0.001h-97.917
		L252.994,421.058L252.994,421.058z"/>
	<path style="fill:#C7EAF0;" d="M252.994,238.908h-81.061c-10.037,24.307-16.856,54.334-16.856,91.075h97.917v-91.075H252.994z"/>
	<path style="fill:#C7EAF0;" d="M252.994,421.058h-81.062c26.78,64.863,76.478,88.961,80.762,90.939c0.1,0,0.199,0.003,0.299,0.003
		V421.058z"/>
	<path style="fill:#C7EAF0;" d="M253.295,511.997c67.217-0.109,125.888-36.653,157.322-90.939h-76.56
		C307.276,485.921,257.578,510.018,253.295,511.997z"/>
	<path style="fill:#C7EAF0;" d="M155.078,329.984L155.078,329.984l-84.1-0.001c0,33.182,8.884,64.287,24.395,91.075h76.56
		C161.897,396.75,155.078,366.724,155.078,329.984z"/>
	<path style="fill:#C7EAF0;" d="M252.695,147.968c-67.218,0.109-125.888,36.653-157.323,90.939h76.56
		C198.714,174.045,248.412,149.947,252.695,147.968z"/>
</g>
<rect x="171.842" style="fill:#A9ACAE;" width="162.546" height="61.233"/>
<rect x="253.115" style="fill:#808181;" width="81.273" height="61.233"/>
<polygon style="fill:#FBAC50;" points="96.784,133.082 72.483,133.082 72.483,90.833 39.083,90.833 39.083,133.082 14.782,133.082 
	14.782,166.482 39.083,166.482 39.083,208.73 72.483,208.73 72.483,166.482 96.784,166.482 "/>
<polygon style="fill:#F78750;" points="96.784,133.082 72.483,133.082 72.483,90.833 55.783,90.833 55.783,208.73 72.483,208.73 
	72.483,166.482 96.784,166.482 "/>
<polygon style="fill:#FBAC50;" points="497.218,419.784 481.354,419.784 481.354,389.666 447.954,389.666 447.954,419.784 
	432.09,419.784 432.09,453.184 447.954,453.184 447.954,483.302 481.354,483.302 481.354,453.184 497.218,453.184 "/>
<polygon style="fill:#F78750;" points="497.218,419.784 481.354,419.784 481.354,389.666 464.654,389.666 464.654,483.302 
	481.354,483.302 481.354,453.184 497.218,453.184 "/>
</svg>