<?xml version="1.0" encoding="iso-8859-1"?>
<!-- Uploaded to: SVG Repo, www.svgrepo.com, Generator: SVG Repo Mixer Tools -->
<svg version="1.1" id="Layer_1" xmlns="http://www.w3.org/2000/svg" xmlns:xlink="http://www.w3.org/1999/xlink" 
	 viewBox="0 0 512 512" xml:space="preserve">
<path style="fill:#FBB03B;" d="M287.904,83.948c0-39.752,32.224-71.976,71.976-71.976s71.976,32.224,71.976,71.976"/>
<path style="fill:#FCC062;" d="M359.881,12.001c-5.504,0-10.844,0.69-15.994,1.86c32.042,7.281,55.981,35.664,55.981,70.146h31.989
	C431.857,44.3,399.632,12.001,359.881,12.001z"/>
<rect y="83.947" style="fill:#C69C6D;" width="511.83" height="23.773"/>
<rect y="107.937" style="fill:#736357;" width="511.83" height="64.324"/>
<rect y="172.261" style="fill:#C69C6D;" width="511.83" height="335.546"/>
<polygon style="fill:#A67C52;" points="79.974,499.809 0,499.682 0,172.261 119.96,172.261 "/>
<polyline style="fill:#54BCE8;" points="136.884,235.515 119.96,235.515 48.068,451.826 48.068,460.167 463.935,460.167 
	463.935,451.826 391.871,235.515 223.61,235.515 "/>
<polyline style="fill:#29ABE2;" points="136.884,235.515 119.96,235.515 48.068,451.826 48.068,460.167 311.381,460.167 
	311.381,451.826 266.22,235.515 159.872,235.515 "/>
<path style="fill:#C7B299;" d="M415.863,204.169H223.927h-87.97H95.968L8.362,459.823v40.05h495.279v-40.05L415.863,204.169z
	 M463.935,460.167H48.068v-8.341l71.892-216.31h15.995h87.97H391.87l72.065,216.31V460.167z"/>
<polygon style="fill:#998675;" points="48.068,451.826 119.96,235.515 135.955,235.515 223.925,235.515 278.231,235.515 
	271.136,204.169 143.953,204.169 103.966,204.169 95.968,204.169 8.362,459.823 8.362,499.873 328.099,499.873 328.099,460.167 
	48.068,460.167 "/>
<polygon points="472.294,467.481 39.709,467.481 39.709,450.546 114.324,228.201 136.884,228.201 136.884,243.875 125.597,243.875 
	55.818,451.808 456.183,451.808 386.239,243.875 223.61,243.875 223.61,228.201 397.502,228.201 472.294,450.543 "/>
<path d="M159.787,251.892h-15.673V167.92c0-10.936,8.897-19.833,19.832-19.833c10.936,0,19.832,8.897,19.832,19.833v19.993h-15.673
	V167.92c0-2.294-1.866-4.16-4.159-4.16c-2.294,0-4.159,1.866-4.159,4.16V251.892z"/>
<path d="M215.768,251.892h-15.673V167.92c0-10.936,8.897-19.833,19.832-19.833c10.936,0,19.833,8.897,19.833,19.833v19.993h-15.673
	V167.92c0-2.294-1.866-4.16-4.159-4.16c-2.294,0-4.16,1.866-4.16,4.16V251.892z"/>
<rect x="168.228" y="195.813" width="24.033" height="15.673"/>
<rect x="168.228" y="228.204" width="24.033" height="15.673"/>
<polygon points="512,507.187 0.003,507.187 0.003,458.513 0.429,457.274 90.377,195.81 136.884,195.81 136.884,211.483 
	101.559,211.483 15.677,461.134 15.677,491.514 496.327,491.514 496.327,461.136 410.275,211.483 223.61,211.483 223.61,195.81 
	421.45,195.81 512,458.51 "/>
<g>
	<rect x="136.881" y="276.269" style="fill:#FFFFFF;" width="79.412" height="15.673"/>
	<rect x="216.293" y="300.302" style="fill:#FFFFFF;" width="31.347" height="15.673"/>
	<rect x="152.554" y="347.322" style="fill:#FFFFFF;" width="31.347" height="15.673"/>
	<rect x="183.901" y="396.432" style="fill:#FFFFFF;" width="135.836" height="15.673"/>
	<rect x="319.737" y="412.105" style="fill:#FFFFFF;" width="48.065" height="15.673"/>
	<rect x="103.444" y="420.464" style="fill:#FFFFFF;" width="33.437" height="15.673"/>
	<rect x="95.085" y="380.758" style="fill:#FFFFFF;" width="32.392" height="15.673"/>
	<rect x="311.378" y="267.91" style="fill:#FFFFFF;" width="32.392" height="15.673"/>
	<rect x="343.769" y="291.943" style="fill:#FFFFFF;" width="24.033" height="15.673"/>
	<rect x="343.769" y="331.649" style="fill:#FFFFFF;" width="24.033" height="15.673"/>
	<rect x="375.116" y="355.681" style="fill:#FFFFFF;" width="33.437" height="15.673"/>
</g>
<rect x="0.003" y="164.466" width="136.881" height="15.673"/>
<rect x="247.639" y="164.466" width="264.358" height="15.673"/>
<rect x="0.003" y="99.683" width="511.997" height="15.673"/>
<path d="M439.694,84.006H424.02c0-35.526-28.773-64.14-64.14-64.14s-64.14,28.613-64.14,64.14h-15.673
	c0-43.885,35.804-79.813,79.813-79.813C403.889,4.193,439.694,40.121,439.694,84.006z"/>
<path d="M439.252,75.647C435.049,35.65,401.06,4.193,359.881,4.193S284.712,35.65,280.51,75.647H0.003V91.32H512V75.647H439.252z
	 M359.881,19.867c32.543,0,59.484,24.233,63.581,55.78H296.3C300.397,44.1,327.338,19.867,359.881,19.867z"/>
</svg>